<svg xmlns="http://www.w3.org/2000/svg" viewBox="0 0 253.09 76.18"><defs><style>.cls-1{fill:#f90;}.cls-2{fill:#221f1f;}</style></defs><title>amazon</title><g id="Layer_2" data-name="Layer 2"><g id="Layer_1-2" data-name="Layer 1"><path class="cls-1" d="M157.28,59.59c-14.68,10.82-36,16.59-54.28,16.59a98.23,98.23,0,0,1-66.31-25.3c-1.37-1.24-.14-2.94,1.51-2A133.38,133.38,0,0,0,104.54,66.5a132,132,0,0,0,50.61-10.34c2.48-1.06,4.56,1.62,2.13,3.43"/><path class="cls-1" d="M163.38,52.61c-1.87-2.4-12.4-1.14-17.13-.58-1.44.18-1.66-1.07-.36-2,8.39-5.9,22.15-4.2,23.76-2.22s-.42,15.79-8.3,22.38c-1.21,1-2.37.47-1.83-.87,1.77-4.42,5.74-14.33,3.86-16.73"/><path class="cls-2" d="M146.09,8.54V3a1.41,1.41,0,0,1,1.45-1.45h26.19s1.48.23,1.36,1.09V7.54c.11.83-.58,1.9-1.81,3.61L160,30.16c4.95-.12,10.17.62,14.66,3.15a4.23,4.23,0,0,1,1.47,2.23V41.4c0,.83-.93,1.81-1.9,1.3a29.85,29.85,0,0,0-27.26,0c-.9.48-1.84-.49-1.84-1.32V35.61a6.92,6.92,0,0,1,.95-3.95l15.5-22.12H148.06a1.42,1.42,0,0,1-1.48-1.44"/><path class="cls-2" d="M53.09,44.54H45.46a1.48,1.48,0,0,1-1.37-1.34V3a1.46,1.46,0,0,1,1.48-1.44H52.7a1.44,1.44,0,0,1,1.39,1.34V7.54h.15c1.88-5,5.42-7.37,10.19-7.37s7.87,2.34,10,7.37a11.43,11.43,0,0,1,19.66-3c2.45,3.35,2,8.21,2,12.47V42.1a1.46,1.46,0,0,1-1.49,1.44H86.47a1.48,1.48,0,0,1-1.38-1.45V20.82c0-1.69.15-5.92-.21-7.52-.57-2.7-2.28-3.45-4.5-3.45a5.1,5.1,0,0,0-4.58,3.28c-.78,2-.71,5.41-.71,7.69V42.09a1.46,1.46,0,0,1-1.47,1.45H65.47a1.46,1.46,0,0,1-1.38-1.45V20.82c0-4.48.72-11.06-4.71-11.06s-5.28,6.42-5.28,11.06V42.73a1.48,1.48,0,0,1-1.5,1.45"/><path class="cls-2" d="M197.34.44c11.6,0,17.88,10,17.88,22.63,0,12.24-6.94,22-17.88,22-11.39,0-17.6-10-17.6-22.38S186,.44,197.34.44m.07,8.19c-5.77,0-6.13,7.85-6.13,12.75s-.08,15.37,6.06,15.37,6.34-8.45,6.34-13.59a37.21,37.21,0,0,0-1.16-10.65c-.88-2.79-2.63-3.88-5.11-3.88"/><path class="cls-2" d="M230.09,44.54h-7.61a1.49,1.49,0,0,1-1.39-1.46V2.85a1.47,1.47,0,0,1,1.49-1.31h7.14a1.47,1.47,0,0,1,1.38,1.12V8.54h.15C233.43,3,236.5.35,241.9.35A10.24,10.24,0,0,1,251,5.13c2.05,3.24,2.05,8.7,2.05,12.62V43.26a1.51,1.51,0,0,1-1.51,1.28h-7.06a1.52,1.52,0,0,1-1.43-1.27V21.48c0-4.39.52-10.81-5.05-10.81a5.28,5.28,0,0,0-4.67,3.21,17.32,17.32,0,0,0-1.28,7.6V42.73a1.5,1.5,0,0,1-1.53,1.45"/><path class="cls-2" d="M126.09,24.54V23.32c-5.65,0-11.62,1.21-11.62,7.87,0,3.38,1.75,5.67,4.75,5.67a6.33,6.33,0,0,0,5.41-3.55c1.54-2.71,1.46-5.25,1.46-8.3M134,44.12a1.63,1.63,0,0,1-1.86.19,19.23,19.23,0,0,1-4.49-5.22c-4.3,4.38-7.35,5.69-12.92,5.69-6.59,0-11.73-4.06-11.73-12.21a13.33,13.33,0,0,1,8.35-12.81c4.26-1.87,10.2-2.2,14.74-2.72V16c0-1.87.15-4.07-1-5.68a5.23,5.23,0,0,0-4.39-2c-3,0-5.66,1.53-6.31,4.71a1.64,1.64,0,0,1-1.35,1.43l-7.61-.81A1.4,1.4,0,0,1,104.31,12c1.75-9.21,10.08-12,17.53-12,3.81,0,8.79,1,11.8,3.9,3.82,3.56,3.45,8.31,3.45,13.48V29.6c0,3.67,1.52,5.28,3,7.26a1.47,1.47,0,0,1,0,2.08c-1.59,1.34-4.44,3.82-6,5.21l0,0"/><path class="cls-2" d="M24.09,24.54V23.32c-5.65,0-11.62,1.21-11.62,7.87,0,3.38,1.75,5.67,4.75,5.67a6.33,6.33,0,0,0,5.41-3.55c1.54-2.71,1.46-5.25,1.46-8.3M31,44.12a1.63,1.63,0,0,1-1.86.19,19.23,19.23,0,0,1-4.49-5.22c-4.3,4.38-7.35,5.69-12.92,5.69C5.14,44.78,0,40.72,0,32.57A13.33,13.33,0,0,1,8.35,19.76c4.26-1.87,10.2-2.2,14.74-2.72V16c0-1.87.14-4.07-.95-5.68a5.23,5.23,0,0,0-4.39-2c-3,0-5.66,1.53-6.31,4.71a1.64,1.64,0,0,1-1.35,1.43l-7.61-.81A1.4,1.4,0,0,1,1.31,12C3.06,2.78,11.39,0,18.84,0c3.81,0,8.79,1,11.8,3.9,3.82,3.56,3.45,8.31,3.45,13.48V29.6c0,3.67,1.52,5.28,3,7.26a1.47,1.47,0,0,1,0,2.08c-1.59,1.34-4.44,3.82-6,5.21l0,0"/></g></g></svg>