<svg xmlns="http://www.w3.org/2000/svg" viewBox="0 0 194.48 126.06"><defs><style>.cls-1{fill:#161d44;}.cls-2{fill:#ef4824;}.cls-3{fill:#fffeff;}</style></defs><title>d2d</title><g id="Layer_2" data-name="Layer 2"><g id="Layer_1-2" data-name="Layer 1"><path class="cls-1" d="M128.12,79.8a38.21,38.21,0,0,1,5.37,2.87L148,91l11.68,6.73q4.29,2.47,8.59,4.91c.54.31.23.52,0,.7a7.57,7.57,0,0,1-1.72,1,24.46,24.46,0,0,0-4.25,2.37c-4,2.24-8,4.6-12,6.92-6,3.5-12,7-18.08,10.48-1,.57-2,1.06-3,1.65a1,1,0,0,1-.92.18c-.39-.22.05-.5,0-.77,0-.69,0-1.39,0-2.09,0-4.57-.05-9.15,0-13.73,0-1.05-.35-1.31-1.32-1.31-9.56,0-19.11,0-28.67,0q-27.84,0-55.68.07c-2.56,0-5.12,0-7.68.08-.34,0-.7,0-.87-.3s.21-.5.4-.7c2.61-2.78,5.21-5.56,7.84-8.32q9.34-9.8,18.42-19.84C68.34,70.73,75.89,62.39,83.33,54a115.22,115.22,0,0,0,8.75-10.72,46.64,46.64,0,0,0,5.38-9.57,19.4,19.4,0,0,0,1.43-8.9c-.62-6.1-4-10.11-9.79-11.88-7.51-2.29-14.06-.55-19.47,5.21,0,.06-.12.09-.15.15-.36.67-1.28,1.24-1.14,1.9s1.27.44,1.92.69c4.58,1.73,8.09,4.59,10,9.26a16.31,16.31,0,0,1-.05,13,15.59,15.59,0,0,1-8.5,8.31,16.46,16.46,0,0,1-8.34,1.23,14.38,14.38,0,0,1-8.32-3.53A16.17,16.17,0,0,1,49.9,41.5a18,18,0,0,1-.48-9.14,38.81,38.81,0,0,1,4.12-10.84,36.85,36.85,0,0,1,8.29-9.92A47.75,47.75,0,0,1,80.48,2,57.41,57.41,0,0,1,91,.19a68.22,68.22,0,0,1,11.07.08,46.66,46.66,0,0,1,11.61,2.47c6.25,2.19,12,5.19,16.78,9.92,4.09,4.09,6.42,9.18,8,14.66a46.09,46.09,0,0,1,1.22,6.47,21.56,21.56,0,0,1,0,5,42,42,0,0,1-2,10,47.53,47.53,0,0,1-4.47,9.52q-5.12,8.41-11,16.28c-3.11,4.18-6.39,8.23-9.67,12.27-2.9,3.56-5.86,7.07-8.92,10.49-.17.19-.4.37-.29.65s.44.18.66.18l22.85,0c1.54,0,1.52-.1,1.49-1.68,0-3.62,0-7.25,0-10.87a39.48,39.48,0,0,0-.2-5.7m10,29.55c.07.86.5.85,1.08.44a18.64,18.64,0,0,1,3-1.92c2.81-1.28,5.24-3.2,8.05-4.45.51-.22.8-.48,0-.91-3.73-2.09-7.43-4.21-11.13-6.35-.71-.41-1-.56-1,.52,0,4.2,0,8.4,0,12.6ZM101.14,8.7a14,14,0,0,1,3.06,3.35,25.74,25.74,0,0,1,5,14.24,23.36,23.36,0,0,1-.58,6.43A38.9,38.9,0,0,1,104,44.08a84.6,84.6,0,0,1-7.15,9.61c-3,3.74-6.18,7.34-9.38,10.91-2.46,2.76-4.79,5.63-7.25,8.38-4.68,5.22-9.41,10.4-14.13,15.58-2.46,2.69-5,5.34-7.43,8-.37.41-1.28.69-1,1.26s1.13.18,1.72.18c9.59,0,19.18,0,28.77,0a1.89,1.89,0,0,0,1.65-.64C94,92.58,98.29,87.87,102.37,83s8.27-10.18,12.19-15.45q4.51-6.09,8.54-12.51a44.35,44.35,0,0,0,4.26-7.87c1.84-4.88,2.81-9.9,1.88-15.15a26,26,0,0,0-4.72-11.57,28.55,28.55,0,0,0-13.09-9.54A41.4,41.4,0,0,0,101.14,8.7M65.32,30.43c-3.68-.32-6.08,3-6.18,5.92a6,6,0,0,0,2,4.51,6.33,6.33,0,0,0,5.17,1.69c2.72-.12,5.22-3.3,5.14-6.93a5.73,5.73,0,0,0-6.1-5.19"/><path class="cls-2" d="M155.44,54.48c0-7.11,0-14.21,0-21.31,0-.78.19-1.09,1-1.09,5.16,0,10.32,0,15.48,0a25.36,25.36,0,0,1,10.22,2.29,20.71,20.71,0,0,1,7,5,21.71,21.71,0,0,1,5.14,12.26,25.29,25.29,0,0,1-.56,8.94A20,20,0,0,1,183.09,74a23.74,23.74,0,0,1-8.2,2.5,41.11,41.11,0,0,1-5.66.42c-4.21-.06-8.42,0-12.63,0-.87,0-1.21-.23-1.2-1.18,0-7.06,0-14.13,0-21.19Zm10.49,0h.44v5.93c0,2,0,4,0,5.93,0,.49,0,.89.63.89,3.12,0,6.27.33,9.29-.82a9.72,9.72,0,0,0,6.1-6.15,19.34,19.34,0,0,0,.45-9.73,10.48,10.48,0,0,0-3.1-5.86c-1.84-1.78-4.24-2.33-6.55-2.89-1.72-.43-3.62-.1-5.44-.2-1,0-1.4.28-1.38,1.36.06,3.85,0,7.69,0,11.54"/><path class="cls-2" d="M0,54.48c0-7.11,0-14.21,0-21.32,0-.72.21-1,.92-1,4.87,0,9.75-.08,14.61.07a28.76,28.76,0,0,1,11,2.24,20,20,0,0,1,10,9.29c2.35,4.56,2.74,9.39,2.31,14.33a18.11,18.11,0,0,1-2.46,7.71A22,22,0,0,1,21.11,76.56a29,29,0,0,1-5.88.32C10.65,76.79,6.07,77,1.5,77,0,77,0,77,0,75.56Q0,65,0,54.48Zm10.91,0h0V66.32c0,.48-.07,1,.66,1,3.9.15,7.82.3,11.24-2.06a9.5,9.5,0,0,0,4.05-5.12c.28-1,.35-2,.58-2.94a14,14,0,0,0-1.79-10.66C23.57,43,20,42.06,16.21,41.7c-1.41-.13-2.86,0-4.29,0-.85,0-1,.25-1,1.06,0,3.91,0,7.82,0,11.74"/><path class="cls-3" d="M65.32,30.43a5.73,5.73,0,0,1,6.1,5.19c.08,3.63-2.42,6.81-5.14,6.93a6.33,6.33,0,0,1-5.17-1.69,6,6,0,0,1-2-4.51c.1-2.9,2.5-6.24,6.18-5.92"/><path class="cls-2" d="M138.1,109.28l.19,0c0,.2-.08.15-.19.09v-.07"/></g></g></svg>