<svg xmlns="http://www.w3.org/2000/svg" xmlns:xlink="http://www.w3.org/1999/xlink" viewBox="0 0 257.38 52.2"><defs><style>.cls-1{isolation:isolate;}.cls-2{clip-path:url(#clip-path);}.cls-3{fill:none;}.cls-4{fill:#fff;}.cls-5{clip-path:url(#clip-path-2);}.cls-6{clip-path:url(#clip-path-3);}.cls-7{fill:#0b79bf;}.cls-7,.cls-8,.cls-9{fill-rule:evenodd;}.cls-8{fill:#fefefe;}.cls-9{fill:#4c4c4e;}.cls-10{mask:url(#mask);}.cls-11{clip-path:url(#clip-path-4);}.cls-12{mask:url(#mask-2);}.cls-13{clip-path:url(#clip-path-5);}</style><clipPath id="clip-path"><rect class="cls-3" y="4.64" width="20.91" height="42.22"/></clipPath><clipPath id="clip-path-2"><rect class="cls-3" x="139.31" y="4.62" width="40.3" height="42.29"/></clipPath><clipPath id="clip-path-3"><rect class="cls-3" x="139.31" y="4.62" width="40.41" height="42.45"/></clipPath><mask id="mask" x="0" y="0" width="257.38" height="52.21" maskUnits="userSpaceOnUse"><g transform="translate(0)"><rect y="4.64" width="20.91" height="42.22"/><g class="cls-1"><g class="cls-2"><rect class="cls-4" width="257.37" height="52.21"/></g></g></g></mask><clipPath id="clip-path-4" transform="translate(0)"><rect class="cls-3" y="4.64" width="20.91" height="42.22"/></clipPath><mask id="mask-2" x="0" y="0" width="257.37" height="52.21" maskUnits="userSpaceOnUse"><g transform="translate(0)"><g class="cls-5"><rect x="139.31" y="4.62" width="40.41" height="42.44"/><g class="cls-1"><g class="cls-6"><rect class="cls-4" width="257.37" height="52.21"/></g></g></g></g></mask><clipPath id="clip-path-5" transform="translate(0)"><rect class="cls-3" x="139.31" y="4.62" width="40.3" height="42.29"/></clipPath></defs><title>takealot</title><g id="Layer_2" data-name="Layer 2"><g id="Layer_1-2" data-name="Layer 1"><path class="cls-7" d="M243.24,49.27a26.32,26.32,0,0,1-35.37-11.14A26,26,0,0,1,218.94,3l.12-.06a26.13,26.13,0,1,1,24.18,46.33" transform="translate(0)"/><path class="cls-8" d="M218.25,27.51l2.26.24a5.38,5.38,0,0,1-1.69,3.2,4.53,4.53,0,0,1-3,1.05,4.36,4.36,0,0,1-3.7-1.75A6.91,6.91,0,0,1,210.81,26a6.38,6.38,0,0,1,1.42-4.31A4.59,4.59,0,0,1,216,20q3.81,0,4.53,4l-2.26.31c-.19-1.43-.9-2.15-2.12-2.15a2,2,0,0,0-1.93,1.16,5.94,5.94,0,0,0-.61,2.82,4.82,4.82,0,0,0,.63,2.7,2,2,0,0,0,1.75.94c1.16,0,1.91-.73,2.28-2.21m9,2.34c1.77,0,2.63-1.31,2.63-3.92a5.33,5.33,0,0,0-.62-2.8,2.14,2.14,0,0,0-1.93-1,2.23,2.23,0,0,0-2,1.07,5.42,5.42,0,0,0-.64,2.8,5.1,5.1,0,0,0,.68,2.89,2.23,2.23,0,0,0,1.91,1M227.12,32a4.57,4.57,0,0,1-3.94-1.84,6.9,6.9,0,0,1-1.34-4.23,6.18,6.18,0,0,1,1.49-4.25,5.37,5.37,0,0,1,7.8-.06,6.18,6.18,0,0,1,1.49,4.31,6.15,6.15,0,0,1-1.56,4.42A5.19,5.19,0,0,1,227.12,32m24.37-.24h-2.76V24.57c0-1.49-.65-2.25-2-2.25a2.24,2.24,0,0,0-1.84.85,3.77,3.77,0,0,0-.7,2.52v6.07h-2.8V24.57c0-1.53-.62-2.28-1.86-2.28a2.39,2.39,0,0,0-1.91.92,3.66,3.66,0,0,0-.77,2.48v6.07h-2.71V20.19h2.54v2.46a4.07,4.07,0,0,1,3.86-2.7,3.26,3.26,0,0,1,3.34,2.7,4.27,4.27,0,0,1,3.86-2.7,3.69,3.69,0,0,1,2.72,1,3.53,3.53,0,0,1,1,2.59v8.18Z" transform="translate(0)"/><path class="cls-9" d="M192.85,4.62l0,11.46h5.43v7h-5.41V35.19a7,7,0,0,0,.31,2.56,1.75,1.75,0,0,0,1.7,1,9.41,9.41,0,0,0,3-.73l2.36,7.54a42.59,42.59,0,0,1-8.47,1.35,10.25,10.25,0,0,1-5.39-1.11,6.38,6.38,0,0,1-2.58-3.35,23,23,0,0,1-.83-7.29v-12h-3.64v-7H183V4.64Z" transform="translate(0)"/><g class="cls-10"><g class="cls-11"><path class="cls-9" d="M13.48,4.64V16.08H18.9v7H13.49V35.19a6.22,6.22,0,0,0,.34,2.56,1.7,1.7,0,0,0,1.67,1A9.3,9.3,0,0,0,18.55,38l2.36,7.54a43,43,0,0,1-8.45,1.35,10.31,10.31,0,0,1-5.41-1.11A6.37,6.37,0,0,1,4.48,42.4a22.69,22.69,0,0,1-.83-7.29v-12H0v-7H3.63V4.64Z" transform="translate(0)"/></g></g><path class="cls-9" d="M40.05,32a42.15,42.15,0,0,1-4.23,1.49A9.14,9.14,0,0,0,32,35.28a3.18,3.18,0,0,0-.83,2.13A3.13,3.13,0,0,0,32,39.64a3.17,3.17,0,0,0,2.39.87,5.44,5.44,0,0,0,3.06-.94,5.35,5.35,0,0,0,2-2.28,8.89,8.89,0,0,0,.59-3.5Zm1.64,14.26A12.26,12.26,0,0,1,41,44.45a15.72,15.72,0,0,1-.33-1.92,12.7,12.7,0,0,1-3.86,3.13,13.83,13.83,0,0,1-6.06,1.25q-4.57,0-7-2.48a8.58,8.58,0,0,1-2.4-6.15,8.87,8.87,0,0,1,1.72-5.63q1.71-2.22,6.33-3.31c3.68-.87,6.13-1.48,7.23-1.77,1.66-.44,2.6-.5,3.31-1.62a2.17,2.17,0,0,0-.6-2.8,3.83,3.83,0,0,0-2.67-.85,5.2,5.2,0,0,0-3.44.83c-1.38,1.11-.92,2.73-2.29,2.73H22.09c.37-1.91.44-4,1.54-5.7a9.84,9.84,0,0,1,2.88-2.87,10.81,10.81,0,0,1,3.73-1.36A34.84,34.84,0,0,1,42.46,16a8.11,8.11,0,0,1,6.46,6,14.62,14.62,0,0,1,.74,4.47V46.21ZM127.81,32a40.64,40.64,0,0,1-4.24,1.49,9.42,9.42,0,0,0-3.79,1.84,3.06,3.06,0,0,0,2.39,5.23,5.53,5.53,0,0,0,3.06-.94,5.39,5.39,0,0,0,2-2.28,8.71,8.71,0,0,0,.59-3.5Zm1.65,14.26a12,12,0,0,1-.73-1.76,13.8,13.8,0,0,1-.35-1.92,12.94,12.94,0,0,1-3.85,3.13,13.85,13.85,0,0,1-6,1.25c-3.06,0-5.4-.83-7-2.48a8.53,8.53,0,0,1-2.39-6.15,8.81,8.81,0,0,1,1.71-5.63c1.14-1.48,3.26-2.58,6.33-3.31,3.68-.87,6.13-1.48,7.23-1.77,1.64-.44,2.58-.5,3.32-1.62a2.18,2.18,0,0,0-.63-2.8,3.76,3.76,0,0,0-2.65-.85,5.14,5.14,0,0,0-3.44.83c-1.38,1.11-.92,2.73-2.28,2.73h-8.84c.37-1.91.44-4,1.53-5.7a10,10,0,0,1,2.89-2.87A10.68,10.68,0,0,1,118,15.94a34.72,34.72,0,0,1,12.24.09,8.66,8.66,0,0,1,4.47,2.41,9.09,9.09,0,0,1,2,3.61,15.56,15.56,0,0,1,.73,4.47V46.21ZM51.52,4.64h8.63V28.45L71.32,16.1H81.57L71.27,27.22l10.19,19H71.34L65.05,33.64l-5.12,5.58v7H51.52Z" transform="translate(0)"/><path class="cls-9" d="M98,28.1a7.14,7.14,0,0,0-1.53-4.38,4.11,4.11,0,0,0-3.28-1.43,4.31,4.31,0,0,0-3.75,2.17,7.08,7.08,0,0,0-1.12,3.64Zm9.62,9.55a11.72,11.72,0,0,1-5.52,7.29c-2.1,1.31-5.12,2-9,2a16,16,0,0,1-8-1.69,12.8,12.8,0,0,1-4.84-5.34,18.24,18.24,0,0,1-1.91-8.65q0-7,3.86-11.41t10.64-4.36c3.68,0,6.57.64,8.69,1.95a12.34,12.34,0,0,1,4.87,5.67A23.85,23.85,0,0,1,108,32.74V34H88.31a8.37,8.37,0,0,0,1.29,4.16c1,1.29,2,2.26,3.53,2.24,3.44,0,4.75-1.34,5.36-3.18Z" transform="translate(0)"/><g class="cls-12"><g class="cls-13"><path class="cls-9" d="M139.31,4.62h8.91v41.5h-8.91ZM160,31.23c0,2.69.46,6.3,1.38,7.58a4.14,4.14,0,0,0,5.71,1.31,4.19,4.19,0,0,0,1.28-1.27c.9-1.27,1.36-4.93,1.36-7.73,0-2.59-.46-5.23-1.38-6.52a4.1,4.1,0,0,0-3.4-1.91,4.24,4.24,0,0,0-3.55,1.95c-.94,1.29-1.4,4-1.4,6.59m-9.87,0a16.44,16.44,0,0,1,4-11.36,13.6,13.6,0,0,1,10.71-4.45c5.16,0,9,1.75,11.65,5.24a16.84,16.84,0,0,1,3.17,10.4,16.6,16.6,0,0,1-3.92,11.38c-2.63,2.94-6.26,4.41-10.86,4.41a13.77,13.77,0,0,1-10-3.68c-3.13-3-4.68-7-4.68-11.94" transform="translate(0)"/></g></g></g></g></svg>